<svg xmlns="http://www.w3.org/2000/svg" width="136" height="50"><style>.st22{fill:#009ee0}</style><g id="Kepler_-_home"><path d="M27.7 36.4c-6.7 0-10.5-4.1-10.5-9.8 0-4.9 2.8-9.4 7.1-11.9-7.4.9-12.6 6.9-12.6 13.7 0 5.7 3.8 9.8 10.5 9.8 2.8 0 5.5-.7 7.7-1.9-.7.1-1.5.1-2.2.1" fill="#dada00"/><path d="M10.5 28.3c0-8.7 7.2-16.2 17.1-16.2 3.9 0 7 1.3 9.1 3.5-1.8-3.8-5.7-6.4-11-6.4-9.6 0-16.6 7.3-16.6 15.7 0 2.3.6 4.4 1.6 6.2-.1-1-.2-1.9-.2-2.8" fill="#b1c800"/><path d="M8.1 25.5c0-10.3 8.6-19.2 20.3-19.2 6.3 0 11 3 13.3 7.4-1.9-5.7-7.2-9.9-14.9-9.9C14.5 3.8 5.5 13.2 5.5 24c0 6.7 3.6 11.9 10 13.7-4.8-2.2-7.4-6.7-7.4-12.2" fill="#e2001a"/><path class="st22" d="M82.2 33.8c2.3 0 3.5-1 4-1.8l-.3-1.6c-.7.9-1.7 1.6-3.3 1.6-2 0-3.2-1.2-3.2-3.8 0-2.6 1.1-3.7 2.9-3.7 1.5 0 2.2.7 2.2 2.2 0 .3-.1.8-.1.9l1.9-.2c.1-.3.2-.9.2-1.4 0-2.1-1.6-3.3-4.2-3.3-3.1 0-5.1 2-5.1 5.6-.1 3.7 2.1 5.5 5 5.5m12-.2h2.1v-6.3c0-3-1.2-4.7-3.9-4.7-1.6 0-2.7.7-3.2 1.7v-7.1l-2.1.3v16.1h2.1v-7.8c.4-.8 1.3-1.4 2.6-1.4 1.6 0 2.4.8 2.4 2.9v6.3zm8.2.2c3.1 0 5.3-2 5.3-5.6 0-3.6-2.2-5.6-5.3-5.6-3.1 0-5.3 2-5.3 5.6 0 3.6 2.2 5.6 5.3 5.6m0-1.8c-1.9 0-3-1.2-3-3.7s1.1-3.8 3-3.8 3 1.3 3 3.8c0 2.4-1.2 3.7-3 3.7m6 1.6h2.1v-11l-2.1.3v10.7zm8 .2c2.3 0 3.5-1 4-1.8l-.3-1.6c-.7.9-1.7 1.6-3.3 1.6-2 0-3.2-1.2-3.2-3.8 0-2.6 1.1-3.7 2.9-3.7 1.5 0 2.2.7 2.2 2.2 0 .3-.1.8-.1.9l1.9-.2c.1-.3.2-.9.2-1.4 0-2.1-1.6-3.3-4.2-3.3-3.1 0-5.1 2-5.1 5.6-.1 3.7 2.1 5.5 5 5.5m9.8 0c2.3 0 3.6-1 4-1.9l-.3-1.5c-.7.9-1.9 1.6-3.5 1.6-1.9 0-3.2-1-3.3-3.5h7c.1-.4.3-1 .3-2 0-2.2-1.5-3.9-4.4-3.9-3.3 0-5.1 2.4-5.1 5.6.1 3.6 2.1 5.6 5.3 5.6m-.1-9.4c1.8 0 2.3 1.1 2.3 2.4v.4h-5c.2-1.8 1.2-2.8 2.7-2.8M40.9 22.3c-1 0-1.8.3-2.4 1v-1l-3.7.4v11.1h3.7v-7.3c.2-.5.6-1.3 1.3-1.3.4 0 .6.1.6.8 0 .3-.1.9-.1 1l-.1.5 3.1-.4.1-.2c.2-.4.3-1 .3-1.5.1-2-.9-3.1-2.8-3.1"/><path class="st22" d="M31.2 22c0-1.8.4-2.2 1.1-2.2.4 0 .8.1.8 1.1v1l3-.3.1-.2c.1-.3.2-.8.1-1.1-.1-1.5-.8-3.2-4.1-3.2-3.1 0-4.7 1.8-4.7 5.1v.5h-1.4l-.5 2.9h1.9v8.1h3.7v-8.1h2.9v-2.9h-2.9V22zM72.1 22.3c-1.2 0-2.2.3-2.8 1V17l-3.7.4v16.4h3.7v-7.4c.2-.3.8-.9 1.8-.9s1.7.4 1.7 2.1v6.2h3.7v-6.4c-.1-3.3-1.6-5.1-4.4-5.1M61.5 26.9l-1-.3c-1.1-.3-1.4-.4-1.4-.8 0-.2 0-.6 1.3-.6 1 0 2.5.4 3.1.9l.4.3.5-2.7-.1-.1c-.5-.5-1.9-1.3-4-1.3-2.9 0-4.9 1.5-4.9 3.7 0 1.7 1.1 2.8 3.3 3.4l1 .3c1.1.3 1.4.4 1.4.7 0 .4-.5.6-1.6.6-1.5 0-2.9-.5-3.6-1l-.4-.3-.4 2.8.1.1c.8.7 2.7 1.2 4.4 1.2 3.2 0 5.1-1.4 5.1-3.6.2-2.2-1.6-2.9-3.2-3.3M49.8 25.2c1 0 1.4.5 1.4 1.5H48c.3-1 .9-1.5 1.8-1.5m0-2.9c-3.6 0-5.8 2.2-5.8 5.8 0 3.7 2.2 5.8 6 5.8 2.6 0 4-1.2 4.5-1.9l.1-.1-.5-2-.4.3c-.2.2-1.1.7-2.6.7h-.6c-1.5-.2-2.4-.6-2.7-2h6.6l.1-.2v-.1c.1-.4.3-1 .3-1.9.1-2.7-1.9-4.4-5-4.4M109.5 20.7c.7 0 1.2-.5 1.2-1.3s-.5-1.3-1.2-1.3-1.2.5-1.2 1.3c0 .9.5 1.3 1.2 1.3"/></g></svg>