<svg xmlns="http://www.w3.org/2000/svg" width="166" height="52"><style>.st7{fill:#930;stroke:#e3e6d5;stroke-width:1.2969;stroke-linecap:round;stroke-miterlimit:10}.st9{fill:#f49611}</style><g id="Kepler_Account"><path class="st9" d="M79.7 16.6c.8-.5 1.4-1.4 2-2.1.8-.8 1.6-1.7 2.3-2.6.4-.5.8-1 1.2-1.3h4.3c-1 1.1-2 2.3-3.2 3.5-1.1 1.2-2.2 2.4-3.3 3.5.6.5 1.2 1.1 1.9 1.8 1 1.1 1.9 2.2 2.8 3.4.3.4 2 3.5 2.2 3.5h-4.2c-.4-.6-.8-1.3-1.2-1.9-.9-1.4-2-2.6-3.2-3.8-.6-.6-1.1-1.1-1.6-1.5v7.2H76V3.6l3.6-.6v11.3c0 .7 0 1.5.1 2.3zM91 18.5c0-1.4.2-2.6.6-3.6 1.1-2.8 3.7-4.7 6.7-4.7 2.2 0 3.8.7 5.1 2 .9 1 1.4 2.3 1.6 3.6.1.3.4 3.8.1 3.8H94.7c.1 1.3.5 2.2 1.3 2.9.8.7 1.9 1 3.4 1 1.4 0 2.9-.2 4.1-.7l.5 3c-.2.1-.5.2-.8.3-1.4.4-2.8.6-4.2.6-2.1 0-4.1-.6-5.7-2-1.7-1.6-2.3-4-2.3-6.2zm10.5-1.7c0-.5-.1-1-.2-1.4-.1-.4-.3-.8-.6-1.2-.9-1.1-2.6-1.4-3.9-.7-1.3.6-1.9 2-2.1 3.3h6.8zM123.1 18.4c0 1.1-.2 2.2-.5 3.3-.3 1-.8 1.9-1.3 2.6-1 1.3-2.6 2-4.2 2.2-.8.1-1.6.1-2.4-.1-.3 0-2.2-.5-2.2-.7v6.1H109V11c.7-.2 1.7-.4 2.7-.6 1.1-.2 2.2-.3 3.4-.3 2.1 0 4.3.6 5.8 2.2.7.7 1.2 1.6 1.6 2.6.5 1.2.6 2.3.6 3.5zm-3.7.1c0-1.6-.4-2.9-1.1-3.8-.7-.9-1.9-1.4-3.5-1.4h-1.1c-.4 0-.7.1-1.1.2v9c.3.2.7.4 1.3.6 1.6.6 3.6.4 4.6-1.1.6-.8.9-2 .9-3.5zM132.3 26.5c0 .3-2.8-.4-3.1-.5-1.1-.4-1.9-1.2-2.2-2.3-.2-.6-.3-1.3-.3-2.1v-18l3.6-.6v18c0 1.7.8 2.4 2.4 2.6l-.4 2.9zM134.9 18.5c0-2.2.6-4.6 2.2-6.2.7-.7 1.5-1.2 2.3-1.6.9-.3 1.8-.5 2.7-.5 2.2 0 3.8.7 5.1 2 1.2 1.3 1.8 3.3 1.8 6v1.4h-10.3c.1 1.3.5 2.2 1.3 2.9.8.7 1.9 1 3.4 1 1.4 0 2.8-.3 4.1-.7 0 .3.6 2.9.5 3-.2.1-.5.2-.8.3-.9.3-1.8.4-2.7.5-.5.1-1.1.1-1.6.1-2.2 0-4.6-.6-6.1-2.3-.7-.7-1.2-1.6-1.5-2.6-.2-1.1-.4-2.2-.4-3.3zm10.5-1.7s-.2-1.2-.2-1.3c-.2-.7-.5-1.4-1.1-1.8-.9-.7-2.1-.7-3.2-.3-1.5.6-1.9 1.9-2.3 3.4 1.9-.1 3.9 0 5.9 0h.9zM161.8 13.8c-.3-.1-.7-.2-1.2-.3-1-.2-2.1-.2-3.1 0-.5.1-.8.1-.9.2v12.6H153v-15c.7-.3 1.6-.5 2.6-.7 2.2-.5 4.8-.6 6.9.2l-.7 3zM78.8 34.5c1 0 1.8.1 2.5.4 1.3.5 2.2 1.6 2.6 2.9.2.7.3 1.4.3 2.2v9.3c0 .3-3.4.6-3.7.6-2.5.2-5.6.1-6.8-2.4-.9-1.9-.5-4.4 1.3-5.6.6-.4 1.2-.6 2-.8 1.6-.4 3.3-.3 4.9 0 .2.1.3.1.4.1v-.9c0-.5 0-1-.1-1.5s-.2-.9-.5-1.3c-1.1-1.6-3.7-1.5-5.4-1.1-.5.2-.9.3-1.2.4l-.3-1.6c.3-.2.8-.3 1.5-.4.7-.2 1.5-.3 2.5-.3zm.2 13.8c.7 0 1.3 0 1.9-.1.5 0 1-.1 1.4-.2v-5.2c-.2-.1-.5-.2-1-.3-1.8-.4-4.5-.4-5.7 1.3-.3.4-.4.9-.4 1.5-.1 2.3 1.9 2.9 3.8 3zM93.6 50c-1 0-2.1-.2-3-.6-1.8-.7-2.9-2.2-3.5-4-.6-2-.6-4.3 0-6.3.3-1 .8-1.8 1.4-2.5 1.8-2.1 4.7-2.4 7.2-1.9.7.1 1.2.3 1.6.5l-.5 1.6c.1-.3-2.6-.6-2.8-.6-1.5-.1-3.1.3-4.1 1.6-.8 1.1-1.3 2.6-1.3 4.5 0 2.2.7 4.6 2.9 5.5 1.3.6 3.1.6 4.5.2.5-.2.9-.3 1.2-.5l.4 1.6c-.3.2-.9.4-1.6.6-.8.2-1.6.3-2.4.3zM105.3 50c-1 0-2.1-.2-3-.6-2.8-1.2-4-4.2-4-7.1 0-2 .5-4.1 1.8-5.6 1.3-1.4 3.1-2.1 5-2.1.8 0 1.5.1 2.2.2.7.1 1.2.3 1.6.5l-.5 1.6c-.4-.2-.8-.3-1.3-.5-1.9-.5-4.3-.2-5.7 1.4-.8 1.1-1.3 2.6-1.3 4.5 0 2.2.7 4.6 2.9 5.5 1.3.6 3.1.6 4.5.2.5-.2.9-.3 1.2-.5l.4 1.6c-.3.2-.9.4-1.6.6-.6.2-1.4.3-2.2.3zM123.6 42.3c0 1.2-.2 2.2-.5 3.2-.6 1.7-1.8 3.2-3.5 4-.8.4-1.7.6-2.7.6-2.9 0-5.3-1.9-6.3-4.6-.7-2-.7-4.4 0-6.4.6-1.7 1.8-3.3 3.5-4 1.7-.8 3.8-.8 5.4 0 1.7.8 2.9 2.3 3.5 4 .4.9.6 2 .6 3.2zm-2 0c0-1.9-.4-3.3-1.3-4.4-.9-1.1-2-1.6-3.5-1.6s-2.6.5-3.5 1.6c-.9 1.1-1.3 2.6-1.3 4.4 0 1.9.4 3.3 1.3 4.4.9 1.1 2 1.6 3.5 1.6s2.6-.5 3.5-1.6c.9-1.1 1.3-2.6 1.3-4.4zM137.6 49.1c-.6.2-1.3.3-2.2.5-3 .6-7.4.6-8.7-2.8-.4-1.1-.6-2.5-.6-3.7v-8.3h1.9v7.7c0 1.1.1 1.9.2 2.7.3 1.2.9 2.3 2.1 2.7.9.4 2 .4 3 .3.2 0 2.5-.2 2.5-.4v-13h1.9v14.3zM141 35.4c.6-.2 1.3-.3 2.2-.5 2-.4 4.4-.6 6.3.2 2.5 1.1 3.1 3.9 3.1 6.3v8.3h-1.9v-4.1c0-2.5.6-5.9-.9-8-1.2-1.7-3.9-1.4-5.6-1.1-.6.1-1.1.2-1.2.3v13h-2V35.4zM157.7 34.9h5.9v1.6h-5.9v7.9c0 .8.1 1.5.2 2 .3 1.2 1.3 1.8 2.5 1.9.3 0 3.5-.3 3.4-.8l.5 1.6c-.3.2-.7.4-1.4.6-.7.2-1.4.3-2.2.3-2.2 0-4.1-1-4.6-3.3-.2-.7-.2-1.6-.2-2.6V30.5l1.9-.3v4.7z"/></g><g id="Social_-_home"><path class="st7" d="M64.9 49.4c.4-.9.6-1.8.6-2.8 0-7.9-14.2-14.3-31.7-14.3C16.2 32.3 2 38.7 2 46.6c0 1 .2 1.9.6 2.8h62.3z"/><path class="st7" d="M48.5 16.7c0 9.9-6.3 17.9-14.1 17.9s-14.1-8-14.1-17.9c0-9.9 6.3-15 14.1-15 7.8-.1 14.1 5.1 14.1 15z"/></g></svg>