<svg xmlns="http://www.w3.org/2000/svg" xmlns:xlink="http://www.w3.org/1999/xlink" width="920" height="322"><style>.st3{fill:#e2e0c9}</style><g id="Kepler_-_home"><g opacity=".4"><path class="st3" d="M490.3 60.3c-3.6 7.4-9.6 9.7-15.5 9.7-15.8 0-19-15-19-24 0-15.3 8.5-23.9 19.6-23.9 5.2 0 12.5 2.2 15.6 9.7l6.7-1.6c-1.1-3-5.8-14.5-22.1-14.5-15.9 0-27.6 11.4-27.6 30.7 0 14.9 7.9 29.9 26.5 29.9 11.6 0 16.7-5.3 18.7-7.4 2.4-2.7 3.1-4.2 4.5-6.9l-7.4-1.7zM557.8 42.2c-.1-6.3-.1-11.4-1.7-15.5-2.7-6.7-9.4-10.9-18.1-10.9-7.3 0-14.4 3.3-17.9 10.4V0H513v74.8h7.2v-25c0-7.8 0-11.2.8-14.8 2.3-9.8 9.7-12.7 16.1-12.7 9.3 0 12.7 5.3 13.3 12 .1.5.2 7.6.2 9.1v31.4h7.1V42.2zM609.7 48.5c-.1 5.8-.4 10.4-4.9 14.9-3.8 3.8-9.9 6.3-15.4 6.3-8.1 0-11.5-5-11.5-9.6 0-7.1 7.3-9.3 13.8-11.1 3-.9 6.3-1.7 14.3-3.9l3.6-.8v4.2zm15.5 26.3v-5.7c-8.6.1-8.7-2.3-8.7-12.5V38c0-5.7 0-8.4-.7-11.1-2.7-9.5-13.3-11.3-20.4-11.3-7.9 0-15.3 2.4-19.4 9-2.3 3.4-2.9 7-3.4 9.9l7.9 1.3c.1-6 1-14.1 15.2-14.1 14.1 0 14.1 9.2 14.1 13.3v3l-6.9 1.6C584.7 43.8 571 47 571 60.3c0 6.1 3.9 15.8 18.2 15.8 8.4 0 16.7-3.6 20.1-10.7.1-.4.2-.7.5-1.2v1.1c.5 8.8 6.7 9.5 15.4 9.5zM637.3 0h7.2v74.8h-7.2zM666.2 0h7.2v74.8h-7.2zM693.3 40.2c1.3-11 8.6-18.1 18.5-18.1 5.7 0 9.6 2.2 12 4.4 3.9 3.6 5.5 8.6 6.1 13.7h-36.6zm-.1 5.8H738c.5-15-8.6-30.3-26.1-30.3-14.1 0-26.7 10.7-26.7 29.8 0 16.1 8.4 30.8 27.5 30.8 12.5 0 18.1-6.2 19.8-8 3-3.4 4.6-6.7 5.5-8.7l-6.7-1.8c-5 9.9-12.2 12.1-18.5 12.1-2.4 0-13.2 0-17.8-11.9-1.7-4.5-1.9-9-1.8-12zM793.7 44.9c0-12.5-.1-17.2-3.9-22.2-5-6.5-12.6-6.9-15.8-6.9-10.3 0-16.1 5.8-18.1 11.6V17.1h-7.2v57.7h7.2V49.5c0-12.1 0-15.9 3.6-20.7 3-4 6.9-6.5 13.5-6.5 6.4 0 9.8 2.9 11.3 5 2.2 3.2 2.2 6.4 2.2 17.7v29.9h7.2v-30zM848.9 46.5c-.1 6.7-.6 23.2-18.3 23.2-3.3 0-8.8-.5-13.1-5.6-3.3-3.9-5.3-10.4-5.3-18.7 0-9 2.7-14.5 5.3-17.7 3.4-3.9 8.4-5.8 13.6-5.8 16.9 0 17.8 15.7 17.8 24.6zm7.2 22.1V17h-6.9v10.7c-1.9-6.3-8.8-12-19-12-14.3 0-25.2 10.4-25.2 29.8 0 16.7 8.5 30.5 25.1 30.5 5.5 0 11.5-1.6 15.8-6.2 2.3-2.4 2.8-4.1 3.4-6.2v2.9c-.1 3.8-.2 15.8-.7 18.8-1.4 8.2-6.4 12.7-17.3 12.7-15.6 0-17.3-9.6-18.3-15.8l-7.4 1.4c.4 4.6 1.5 10.8 7.6 15.5 5.9 4.6 13.3 5.1 17.2 5.1 9.3 0 16.4-2.9 20-6.8 5.7-5.7 5.7-13.8 5.7-28.8zM875.3 40.2c1.3-11 8.6-18.1 18.5-18.1 5.7 0 9.6 2.2 12 4.4 3.9 3.6 5.4 8.6 6.1 13.7h-36.6zm-.2 5.8H920c.5-15-8.6-30.3-26.1-30.3-14.1 0-26.7 10.7-26.7 29.8 0 16.1 8.4 30.8 27.5 30.8 12.5 0 18.1-6.2 19.8-8 3-3.4 4.6-6.7 5.5-8.7l-6.7-1.8c-5 9.9-12.2 12.1-18.5 12.1-2.4 0-13.2 0-17.8-11.9-1.7-4.5-2-9-1.9-12zM0 17.1v201.6h32.6v-42.5l19.2-18.9 41.4 61.4h39.9L75.6 134l52.3-52.3H86L32.6 134V17.1z"/><path class="st3" d="M153 132.7c3.8-18.6 15.9-28.8 33.4-28.8 14.5 0 27.7 7.4 30.7 28.8H153zm-1.1 24.1h101.4c-.3-13.7-2.7-37.5-14-53.4-2.7-4.1-17.8-25.7-54-25.7-38.6 0-68.2 26-68.2 72 0 50.4 34.5 73.1 70.4 73.1 27.9 0 46.9-12 63.9-34.8l-25-16.2c-4.1 5.8-13.2 18.9-35.6 18.9-21.6 0-35.1-12.3-38.9-33.9zM361.1 149.9c0 30.9-17.3 41.9-33.2 41.9-18.4 0-34-14.2-33.4-42.5.5-29.3 17.8-40.3 32.9-40.3 9.9.1 33.7 6.7 33.7 40.9zm33.4 1.7c0-37.8-21.9-74-62.2-74-21.4 0-32.3 11.2-37.5 16.7V81.7h-32.6V322h32.6V207.5c6.9 6.3 18.6 15.3 37.5 15.3 36.7 0 62.2-30.4 62.2-71.2zM404.5 17.1h33.2v201.6h-33.2zM485.9 132.7c3.8-18.6 15.9-28.8 33.4-28.8 14.5 0 27.7 7.4 30.7 28.8h-64.1zm-1.1 24.1h101.4c.6 0-1.8-21.5-2.2-23.2-1.7-8.8-4.4-17.5-8.8-25.3-6.2-11.1-16.3-20.5-28.1-25.3-8.7-3.5-19.5-5.3-28.9-5.3-38.6 0-68.2 26-68.2 72 0 50.4 34.5 73.1 70.4 73.1 27.9 0 46.9-12 63.9-34.8l-25-16.2c-4.1 5.8-13.2 18.9-35.6 18.9-21.6 0-35-12.3-38.9-33.9zM597.8 81.7v137h31.8V168c0-22.7.3-36.7 14.2-47.4 10.1-7.7 22.5-7.9 29.6-8.2V78.7c-30.7-.8-39.7 15.3-43.8 22.5V81.7h-31.8z"/><path class="st3" d="M874.5 217s-47.2-46.5-51.6-50.7c-3-.6-7.1 11.6-10 12.2-4.4 1-14.2.3-19.3 2.9-8.1 4.2-15.2 13.8-19.3 15.3-16.5 6.3-34.3 11.2-48.4 14.9 1.9-.5 4.1-1.5 5.9-2.5 1.6-1 3.5-1.8 5-2.8 4.7-3.3 8.6-8.6 12.7-12.6 3.8-3.7 7.7-7.7 12.2-10.5 6.3-4 36.8-10.7 43.9-15.9 7.1-5.1 19.6-14.5 17.4-20.6-1.5-4.2-4.7-7.5-5.5-11.7-.8-4.2-.8-9.5-3.9-15-3-5.5-7.2-13.4-11.1-16.6-5.9-4.9-6-12.9-9.4-14-3.4-1.1-6.2.5-6.7 4.5s-3.1 19.2-7.5 22.4c-4.4 3.2-21.1 6.1-26.1 4.6s-21-16-25.4-15.5c-2.4.3-10 2.2-13 3.9-1.8 1-1.7 2.8-1.8 4.5-.5 9.3-7.9 18.1-12.9 25.5-3.9 5.8-7.4 11.9-10.3 18.2-1.9 4.2-2.5 9-5.1 12.8-2.9 4.2-9.8 4.4-14.2 6-6.3 2.3-11.9 3.4-18.5 4.6-4.4.8-11 2.2-11.6 7.6-.7 5.7-1 10.4 4.3 17.6 6.1 8.2 19.7 10.8 27.2 10.8h203z"/></g><defs><path id="SVGID_7_" d="M-1276.5 393.7h1160v172.8h-1160z"/></defs><clipPath id="SVGID_2_"><use xlink:href="#SVGID_7_" overflow="visible"/></clipPath><g clip-path="url(#SVGID_2_)"><path fill="none" stroke="#c28880" stroke-width=".052" stroke-linecap="round" stroke-linejoin="round" stroke-miterlimit="10" d="M-109.3 356.2h311.5V167.6h-311.5v188.6" id="IMAGE_89_"/></g></g></svg>