<svg xmlns="http://www.w3.org/2000/svg" width="940" height="400"><style>.st17{fill:#fff}</style><g opacity=".4" id="Kepler_-_home"><path class="st17" d="M500.1 96c-3.6 7.4-9.5 9.7-15.5 9.7-15.7 0-19-15-19-23.9 0-15.2 8.4-23.8 19.6-23.8 5.2 0 12.4 2.2 15.6 9.7l6.6-1.6c-1.1-3-5.8-14.5-22-14.5-15.8 0-27.5 11.4-27.5 30.6 0 14.8 7.8 29.8 26.4 29.8 11.6 0 16.7-5.3 18.6-7.4 2.4-2.7 3.1-4.2 4.5-6.9l-7.3-1.7zM567.5 78c-.1-6.3-.1-11.3-1.7-15.5-2.7-6.6-9.4-10.9-18-10.9-7.2 0-14.4 3.3-17.9 10.4V35.9h-7.1v74.6h7.1V85.6c0-7.7 0-11.1.8-14.7 2.3-9.8 9.7-12.7 16.1-12.7 9.3 0 12.7 5.3 13.3 12 .1.5.2 7.6.2 9.1v31.3h7.1V78zM619.2 84.3c-.1 5.8-.4 10.4-4.8 14.8-3.7 3.8-9.9 6.3-15.3 6.3-8.1 0-11.5-5-11.5-9.5 0-7.1 7.2-9.3 13.8-11.1 3-.8 6.3-1.7 14.3-3.9l3.6-.8v4.2zm15.4 26.2v-5.7c-8.6.1-8.7-2.3-8.7-12.4V73.8c0-5.7 0-8.3-.7-11.1-2.7-9.4-13.3-11.2-20.3-11.2-7.8 0-15.2 2.4-19.3 8.9-2.3 3.4-2.9 7-3.4 9.9l7.8 1.3c.1-6 1-14 15.1-14 14 0 14 9.2 14 13.3v2.9l-6.9 1.6c-18.1 4.2-31.8 7.4-31.8 20.7 0 6 3.9 15.7 18.1 15.7 8.3 0 16.7-3.6 20.1-10.6.1-.4.2-.7.5-1.2v1.1c.7 8.7 6.8 9.4 15.5 9.4zM646.7 35.9h7.1v74.6h-7.1zM675.5 35.9h7.1v74.6h-7.1zM702.5 76c1.3-11 8.6-18 18.5-18 5.7 0 9.5 2.2 12 4.4 3.9 3.6 5.4 8.6 6 13.6h-36.5zm-.1 5.8h44.7c.5-15-8.6-30.2-26-30.2-14 0-26.6 10.6-26.6 29.7 0 16.1 8.3 30.7 27.4 30.7 12.4 0 18-6.1 19.7-8 3-3.4 4.6-6.6 5.4-8.7l-6.7-1.8c-4.9 9.9-12.2 12.1-18.5 12.1-2.4 0-13.2 0-17.7-11.8-1.6-4.6-1.8-9-1.7-12zM802.6 80.7c0-12.4-.1-17.1-3.9-22.1-5-6.5-12.6-6.9-15.7-6.9-10.3 0-16.1 5.8-18 11.6V53h-7.1v57.5h7.1V85.3c0-12.1 0-15.8 3.6-20.6 3-4 6.9-6.5 13.4-6.5 6.4 0 9.8 2.9 11.2 4.9 2.2 3.1 2.2 6.4 2.2 17.6v29.8h7.1V80.7zM857.5 82.2c-.1 6.6-.6 23.1-18.2 23.1-3.3 0-8.8-.5-13-5.6-3.3-3.9-5.3-10.4-5.3-18.6 0-8.9 2.7-14.5 5.3-17.6 3.4-3.9 8.3-5.8 13.5-5.8 16.8 0 17.7 15.7 17.7 24.5zm7.2 22.1V52.9h-6.9v10.6c-1.9-6.3-8.8-12-19-12-14.2 0-25.1 10.4-25.1 29.7 0 16.7 8.5 30.4 25 30.4 5.4 0 11.5-1.6 15.7-6.2 2.3-2.4 2.8-4.1 3.4-6.2v2.9c-.1 3.7-.2 15.7-.7 18.7-1.4 8.2-6.4 12.7-17.3 12.7-15.6 0-17.3-9.5-18.2-15.7l-7.4 1.4c.4 4.6 1.4 10.8 7.6 15.5 5.9 4.6 13.3 5.1 17.1 5.1 9.3 0 16.3-2.9 19.9-6.8 5.9-5.7 5.9-13.8 5.9-28.7zM883.8 76c1.3-11 8.6-18 18.5-18 5.7 0 9.5 2.2 12 4.4 3.9 3.6 5.4 8.6 6 13.6h-36.5zm-.1 5.8h44.7c.5-15-8.6-30.2-26-30.2-14 0-26.6 10.6-26.6 29.7 0 16.1 8.3 30.7 27.4 30.7 12.4 0 18-6.1 19.7-8 3-3.4 4.6-6.6 5.4-8.7l-6.6-1.8c-4.9 9.9-12.2 12.1-18.5 12.1-2.4 0-13.2 0-17.8-11.8-1.6-4.6-1.8-9-1.7-12zM11.6 53v200.9h32.5v-42.4l19.1-18.8 41.3 61.2h39.8L87 169.5l52.1-52.1H97.4l-53.3 52.1V53z"/><path class="st17" d="M164.1 168.1c3.8-18.6 15.8-28.7 33.3-28.7 14.5 0 27.6 7.4 30.6 28.7h-63.9zm-1.1 24.1h101c-.3-13.6-2.7-37.4-13.9-53.2-2.7-4.1-17.7-25.7-53.8-25.7-38.5 0-68 25.9-68 71.8 0 50.2 34.4 72.9 70.2 72.9 27.8 0 46.8-12 63.7-34.7l-24.9-16.1c-4.1 5.7-13.1 18.8-35.5 18.8-21.6 0-35-12.3-38.8-33.8zM371.4 185.3c0 30.8-17.2 41.8-33 41.8-18.3 0-33.9-14.2-33.3-42.3.5-29.2 17.8-40.1 32.8-40.1 9.8 0 33.5 6.5 33.5 40.6zm33.3 1.7c0-37.7-21.8-73.7-62-73.7-21.3 0-32.2 11.2-37.4 16.6v-12.5h-32.5v238.4h32.5V242.7c6.8 6.3 18.6 15.3 37.4 15.3 36.7 0 62-30.3 62-71zM414.7 53h33v200.9h-33zM495.8 168.1c3.8-18.6 15.8-28.7 33.3-28.7 14.5 0 27.6 7.4 30.6 28.7h-63.9zm-1.1 24.1h101c.6 0-1.8-21.5-2.2-23.2-1.7-8.7-4.4-17.4-8.8-25.2-6.2-11-16.2-20.5-28-25.2-8.7-3.5-19.4-5.3-28.8-5.3-38.5 0-68 25.9-68 71.8 0 50.2 34.4 72.9 70.2 72.9 27.8 0 46.8-12 63.7-34.7L569 207.2c-4.1 5.7-13.1 18.8-35.5 18.8-21.6 0-34.9-12.3-38.8-33.8zM607.3 117.4v136.5H639v-50.5c0-22.7.3-36.6 14.2-47.2 10.1-7.6 22.4-7.9 29.5-8.2v-33.6c-30.6-.8-39.6 15.3-43.7 22.4v-19.4h-31.7z"/><path class="st17" d="M883 253s-47.1-46.8-51.4-50.9c-3-.6-7.1 11.3-10 11.9-4.4.9-14.2.2-19.2 2.8-8 4.2-15.1 13.7-19.3 15.2-16.5 6.2-34.2 11.1-48.2 14.8 1.9-.5 4.1-1.5 5.8-2.5 1.6-1 3.5-1.8 5-2.8 4.6-3.3 8.5-8.6 12.6-12.5 3.8-3.7 7.7-7.6 12.1-10.5 6.2-4 36.7-10.7 43.7-15.9 7-5.1 19.6-14.5 17.4-20.5-1.5-4.2-4.7-7.4-5.5-11.6-.8-4.2-.8-9.5-3.9-15-3-5.5-7.2-13.3-11.1-16.5-5.9-4.8-6-12.9-9.4-14-3.4-1.1-6.2.5-6.7 4.5s-3.1 19.2-7.5 22.3c-4.4 3.1-21 6-26 4.5s-20.9-15.9-25.3-15.4c-2.4.3-10 2.2-13 3.9-1.8 1-1.7 2.8-1.8 4.5-.5 9.3-7.9 18.1-12.8 25.4-3.9 5.8-7.3 11.8-10.3 18.1-1.9 4.2-2.4 8.9-5.1 12.8-2.9 4.2-9.7 4.4-14.1 6-6.2 2.3-11.9 3.4-18.4 4.6-4.3.8-10.9 2.2-11.6 7.5-.7 5.7-1 10.8 4.3 18 6 8.2 19.6 11.2 27.1 11.2H883z"/></g></svg>