<svg xmlns="http://www.w3.org/2000/svg" width="38" height="50"><style>.st5{fill:#930;stroke:#f49611;stroke-width:.7239;stroke-linecap:round;stroke-miterlimit:10}.st8{fill:#f2f2f2}</style><g id="Kepler_Account"><path class="st5" d="M36.4 28.6c.2-.5.3-1 .3-1.6 0-4.4-7.9-8-17.7-8S1.3 22.6 1.3 27c0 .5.1 1.1.3 1.6h34.8z"/><path class="st5" d="M27.2 10.3c0 5.5-3.5 10-7.9 10-4.3 0-7.9-4.5-7.9-10s3.5-8.4 7.9-8.4 7.9 2.9 7.9 8.4z"/><g><path class="st8" d="M4.2 35.2c.3-.2.5-.5.8-.8.3-.3.6-.7.9-1 .2-.2.3-.4.4-.5H8c-.4.4-.8.9-1.2 1.3l-1.3 1.3c.2.2.5.4.7.7.4.4.7.9 1.1 1.3.1.1.8 1.3.8 1.3H6.5c-.1-.2-.3-.5-.5-.7l-1.2-1.5-.6-.6v2.8H2.8v-8.7l1.4-.1v5.2zM8.5 36c0-.5.1-1 .2-1.4.4-1.1 1.4-1.8 2.6-1.8.8 0 1.5.3 1.9.8.3.4.5.9.6 1.4 0 .1.1 1.5 0 1.5h-4c0 .5.2.9.5 1.1s.7.4 1.3.4c.5 0 1.1-.1 1.6-.3l.2 1.1c-.1 0-.2.1-.3.1-.5.2-1.1.2-1.6.2-.8 0-1.6-.2-2.2-.8-.5-.6-.8-1.5-.8-2.3zm4.1-.7c0-.2 0-.4-.1-.5s-.1-.3-.2-.4c-.3-.4-1-.5-1.5-.3s-.7.8-.8 1.3h2.6zM20.9 35.9c0 .4-.1.9-.2 1.3s-.3.7-.5 1c-.4.5-1 .8-1.6.9h-.9c-.1 0-.8-.2-.8-.3v2.3h-1.4v-8c.3-.1.6-.2 1-.2.4-.1.9-.1 1.3-.1.8 0 1.7.2 2.2.8.3.3.5.6.6 1 .2.4.3.9.3 1.3zm-1.5.1c0-.6-.1-1.1-.4-1.5-.3-.3-.7-.5-1.4-.5h-.4c-.1 0-.3 0-.4.1v3.4c.1.1.3.2.5.2.6.2 1.4.2 1.8-.4.2-.3.3-.8.3-1.3zM24.4 39.1c0 .1-1.1-.2-1.2-.2-.4-.2-.7-.5-.8-.9-.1-.2-.1-.5-.1-.8v-6.9l1.4-.2V37c0 .6.3.9.9 1l-.2 1.1zM25.4 36c0-.9.2-1.8.9-2.4.3-.3.6-.5.9-.6.3-.1.7-.2 1-.2.8 0 1.5.3 1.9.8.5.5.7 1.3.7 2.3v.6h-4c0 .5.2.9.5 1.1s.7.4 1.3.4c.5 0 1.1-.1 1.6-.3 0 .1.2 1.1.2 1.1-.1 0-.2.1-.3.1-.3.1-.7.2-1 .2h-.6c-.9 0-1.8-.2-2.3-.9-.3-.3-.4-.6-.6-1-.2-.4-.2-.8-.2-1.2zm4-.7l-.1-.5c-.1-.3-.2-.5-.4-.7-.4-.2-.8-.3-1.2-.1-.6.2-.7.7-.9 1.3H29.4zM35.7 34.2c-.1 0-.3-.1-.5-.1-.4-.1-.8-.1-1.2-.1-.2 0-.3.1-.4.1v4.8h-1.4v-5.7c.3-.1.6-.2 1-.3.9-.2 1.8-.2 2.7.1l-.2 1.2zM3.8 42.1c.4 0 .7.1 1 .2.5.2.8.6 1 1.1.1.3.1.5.1.8v3.6c0 .1-1.3.2-1.4.2-.9.1-2.1.1-2.6-.9-.3-.7-.2-1.7.5-2.2.2-.1.5-.2.8-.3.6-.1 1.3-.1 1.9 0h.2v-.4-.6c0-.2-.1-.4-.2-.5-.4-.6-1.4-.6-2.1-.4-.3.2-.5.3-.6.3l-.1-.6c.1-.1.3-.1.6-.2s.6-.1.9-.1zm.1 5.3h.7c.2 0 .4 0 .5-.1v-2c-.1 0-.2-.1-.4-.1-.6-.2-1.7-.2-2.1.5-.1.1-.2.3-.2.6 0 .9.8 1.1 1.5 1.1zM9.5 48.1c-.4 0-.8-.1-1.2-.2-.6-.3-1.1-.9-1.3-1.6-.2-.8-.2-1.7 0-2.4.1-.4.3-.7.5-.9.7-.8 1.8-.9 2.8-.7.3.1.5.1.6.2l-.2.6c0-.1-1-.2-1.1-.2-.6 0-1.2.1-1.6.6-.3.4-.5 1-.5 1.7 0 .8.3 1.8 1.1 2.1.5.2 1.2.2 1.7.1.2-.1.4-.1.5-.2l.2.6c-.1.1-.3.1-.6.2-.3 0-.6.1-.9.1zM14 48.1c-.4 0-.8-.1-1.2-.2-1.1-.5-1.5-1.6-1.5-2.7 0-.8.2-1.6.7-2.2.5-.6 1.2-.8 1.9-.8.3 0 .6 0 .9.1.3.1.5.1.6.2l-.2.5c-.1-.1-.3-.1-.5-.2-.7-.2-1.7-.1-2.2.5-.3.4-.5 1-.5 1.7 0 .9.3 1.8 1.1 2.1.5.2 1.2.2 1.7.1.2-.1.4-.1.5-.2l.2.6c-.1.1-.3.1-.6.2-.3.2-.6.3-.9.3zM21 45.1c0 .4-.1.9-.2 1.2-.2.7-.7 1.2-1.4 1.5-.3.1-.7.2-1 .2-1.1 0-2-.7-2.4-1.7-.3-.8-.3-1.7 0-2.4.2-.7.7-1.2 1.4-1.5.6-.3 1.4-.3 2.1 0 .7.3 1.1.9 1.4 1.5.1.3.1.8.1 1.2zm-.7 0c0-.7-.2-1.3-.5-1.7s-.8-.6-1.3-.6c-.6 0-1 .2-1.3.6s-.5 1-.5 1.7.2 1.3.5 1.7.8.6 1.3.6c.6 0 1-.2 1.3-.6s.5-1 .5-1.7zM26.4 47.7c-.2.1-.5.1-.9.2-1.1.2-2.8.2-3.3-1.1-.2-.4-.2-1-.2-1.4v-3.2h.7v3c0 .4 0 .7.1 1 .1.5.3.9.8 1.1.4.1.8.2 1.1.1.1 0 1-.1 1-.2v-5h.7v5.5zM27.7 42.5c.2-.1.5-.1.9-.2.8-.2 1.7-.2 2.4.1 1 .4 1.2 1.5 1.2 2.4V48h-.7v-1.6c0-.9.2-2.3-.4-3.1-.5-.6-1.5-.5-2.2-.4-.2 0-.4.1-.5.1v5h-.7v-5.5zM34.1 42.3h2.3v.6h-2.3v3c0 .3 0 .6.1.8.1.5.5.7 1 .7.1 0 1.3-.1 1.3-.3l.2.6c-.1.1-.3.1-.5.2s-.5.1-.8.1c-.9 0-1.6-.4-1.8-1.3-.1-.3-.1-.6-.1-1v-5.2l.7-.1v1.9z"/></g></g></svg>