<svg xmlns="http://www.w3.org/2000/svg" width="136" height="50"><style>.st4{fill:#e3e6d5}.st11{fill:#f9b000}.st17{fill:#fff}</style><g id="Kepler_-_home"><path class="st4" d="M123.5 32.7l-6.9-6.9c-.4-.1-.9 1.5-1.3 1.6-.6.1-1.9 0-2.6.4-1.1.6-2 1.8-2.6 2-2.2.8-4.6 1.5-6.5 2 .7-.3 1.3-.6 1.5-.8.6-.6 2.4-2.5 3.2-3 .8-.5 4.9-1.4 5.9-2.1s2.6-1.9 2.3-2.8c-.2-.6-.6-1-.7-1.6-.1-.6-.1-1.3-.5-2s-1-1.8-1.5-2.2c-.8-.6-.8-1.7-1.3-1.9-.5-.1-.8.1-.9.6-.1.5-.4 2.6-1 3-.6.4-2.8.8-3.5.6-.7-.2-2.8-2.1-3.4-2.1-.3 0-1.3.3-1.7.5-.3.2-.2.6-.2.8-.3 1.2-1.2 2.6-1.7 3.2-.5.6-1.2 2-1.4 2.4-.2.4-.5 2.2-1.4 2.1-.9-.1-2.2 1.2-3.2 1.1-.9-.1-2 .2-2.1.9-.1.8-.1 1.5.6 2.4.8 1.1 2.6 1.5 3.6 1.5h27.3z"/><path class="st11" d="M116 22.6l-.3-.6c-.1-.4-.2-.9-.3-1.2 0-.2-.1-.4-.1-.5 0-.1-.1-.2-.2-.4.1.2.2.4.1.5-.1.5-.3 1.8-1.6 2.4-1.2.7-6.7 2.1-7.9 2.8-1.2.7-3.6 3.2-4.4 3.8-.9.6-3.1 2.3-5.3.6-.9-.7-2.1-1.7-1.5-1.6.6.1 3.5-.1 4.4-.3.3-.1.4-.5.8-.8 1.1-.7 1.7-1.5 1.9-1.9.4-.7.9-1.3 1.4-1.8.5-.4 1.2-.6 1.5-.9.4-.3.5-1.1.8-1.2.3-.2 1.3-.1 1.6-.1 1-.2.9-.7 1.6-.7 1.2 0 3.5-.8 3.8-2 .2-.7.8-1.4 1.1-1.2-.2-.3-.3-.5-.4-.8-.1-.2-.2-.2-.3-.2-.5 0-1 1.3-1.1 1.5-.3.8-.6 1.1-1.5 1.5-.7.3-1.4.3-2 .4h-.3c-.5 0-1.6-.2-2.5-.4-.4-.1-.8-.1-1-.2-.3 0-.5.4-.7 1.1-.2.5-.4 1.1-.8 1.8-.8 1.4-1.5 2.2-1.9 2.8-.1.1-.2.2-.3.4-.5.7-1.2 1.8-2.1 1.9H98c-.4 0-.7-.1-1-.1-.4-.1-.7-.1-.9 0-.8.4-1.7.6-2.6.6-.1 0-.3 0-.3.2-.1.2.1.5.4.8l.1.1c.2.2.1.4-.1.7-.1.1-.2.2-.2.4-.1.1-.1.3 0 .6.2.5.7 1.1 1 1.3.1.1.3 0 .5-.1s.5-.2.9-.2c.5 0 1 .1 1.6.4.5.3 1.1.4 1.7.4 1.3 0 2.4-.6 2.8-1 .7-.6 1.6-1.3 2.3-1.6.3-.1.6-.2 1-.2.5-.1.9-.1 1.3-.4.3-.2.7-.5 1.1-.7.8-.5 1.6-1.1 1.9-1.2.6-.3 2.8-1.1 3.8-1.5 1-.4 2.8-1.7 2.9-2.2.1-.5 0-.8-.2-1zM72.1 11.6c-.5 1-1.3 1.3-2.1 1.3-2.1 0-2.5-2-2.5-3.2 0-2 1.1-3.2 2.6-3.2.7 0 1.7.3 2.1 1.3l.8-.2c-.1-.4-.8-2-3-2-2.1 0-3.7 1.5-3.7 4.1 0 2 1.1 4 3.6 4 1.6 0 2.2-.7 2.5-1 .3-.4.4-.6.6-.9l-.9-.2zM81.1 9.2c0-.8 0-1.5-.2-2.1-.4-.9-1.3-1.5-2.4-1.5-1 0-1.9.4-2.4 1.4V3.5h-1v10h1v-3.3c0-1 0-1.5.1-2 .3-1.3 1.3-1.7 2.2-1.7 1.3 0 1.7.7 1.8 1.6v5.4h1V9.2zM88.1 10c0 .8 0 1.4-.6 2-.5.5-1.3.8-2.1.8-1.1 0-1.5-.7-1.5-1.3 0-1 1-1.2 1.9-1.5.4-.1.8-.2 1.9-.5l.5-.1v.6zm2 3.5v-.8c-1.2 0-1.2-.3-1.2-1.7V8.6c0-.8 0-1.1-.1-1.5-.4-1.3-1.8-1.5-2.7-1.5-1.1 0-2 .3-2.6 1.2-.3.5-.4.9-.5 1.3l1.1.2c0-.8.1-1.9 2-1.9S88 7.6 88 8.2v.4l-.9.2c-2.4.6-4.3 1-4.3 2.8 0 .8.5 2.1 2.4 2.1 1.1 0 2.2-.5 2.7-1.4 0 0 0-.1.1-.2v.1c.1 1.2 1 1.3 2.1 1.3zM91.8 3.5h1v10h-1zM95.6 3.5h1v10h-1zM99.3 8.9c.2-1.5 1.2-2.4 2.5-2.4.8 0 1.3.3 1.6.6.5.5.7 1.2.8 1.8h-4.9zm-.1.8h6c.1-2-1.2-4.1-3.5-4.1-1.9 0-3.6 1.4-3.6 4 0 2.2 1.1 4.1 3.7 4.1 1.7 0 2.4-.8 2.6-1.1.4-.5.6-.9.7-1.2l-.9-.2c-.7 1.3-1.6 1.6-2.5 1.6-.3 0-1.8 0-2.4-1.6 0-.5-.1-1.1-.1-1.5zM112.7 9.5c0-1.7 0-2.3-.5-3-.7-.9-1.7-.9-2.1-.9-1.4 0-2.2.8-2.4 1.6V5.8h-1v7.7h1v-3.4c0-1.6 0-2.1.5-2.8.4-.5.9-.9 1.8-.9s1.3.4 1.5.7c.3.4.3.9.3 2.4v4h1v-4zM120.1 9.7c0 .9-.1 3.1-2.4 3.1-.4 0-1.2-.1-1.8-.7-.4-.5-.7-1.4-.7-2.5 0-1.2.4-1.9.7-2.4.5-.5 1.1-.8 1.8-.8 2.3 0 2.4 2.1 2.4 3.3zm1 3V5.8h-.9v1.4c-.3-.8-1.2-1.6-2.6-1.6-1.9 0-3.4 1.4-3.4 4 0 2.2 1.1 4.1 3.4 4.1.7 0 1.5-.2 2.1-.8.3-.3.4-.6.5-.8v.4c0 .5 0 2.1-.1 2.5-.2 1.1-.9 1.7-2.3 1.7-2.1 0-2.3-1.3-2.5-2.1l-1 .2c0 .6.2 1.4 1 2.1.8.6 1.8.7 2.3.7 1.2 0 2.2-.4 2.7-.9.8-.9.8-2 .8-4zM123.6 8.9c.2-1.5 1.2-2.4 2.5-2.4.8 0 1.3.3 1.6.6.5.5.7 1.2.8 1.8h-4.9zm0 .8h6c.1-2-1.2-4.1-3.5-4.1-1.9 0-3.6 1.4-3.6 4 0 2.2 1.1 4.1 3.7 4.1 1.7 0 2.4-.8 2.6-1.1.4-.5.6-.9.7-1.2l-.9-.2c-.7 1.3-1.6 1.6-2.5 1.6-.3 0-1.8 0-2.4-1.6-.1-.5-.1-1.1-.1-1.5z"/><path class="st4" d="M6.4 5.8v27h4.4v-5.7l2.5-2.5 5.6 8.2h5.3l-7.7-11.3 7-7.1h-5.6l-7.1 7.1V5.8z"/><path class="st4" d="M26.9 21.3c.5-2.5 2.1-3.9 4.5-3.9 1.9 0 3.7 1 4.1 3.9h-8.6zm-.2 3.2h13.6c0-1.8-.4-5-1.9-7.2-.4-.6-2.4-3.5-7.2-3.5-5.2 0-9.1 3.5-9.1 9.7 0 6.8 4.6 9.8 9.4 9.8 3.7 0 6.3-1.6 8.6-4.7l-3.3-2.2c-.6.8-1.8 2.5-4.8 2.5-3 .2-4.8-1.5-5.3-4.4zM54.8 23.6c0 4.1-2.3 5.6-4.4 5.6-2.5 0-4.6-1.9-4.5-5.7.1-3.9 2.4-5.4 4.4-5.4 1.3 0 4.5.9 4.5 5.5zm4.4.2c0-5.1-2.9-9.9-8.3-9.9-2.9 0-4.3 1.5-5 2.2v-1.7h-4.4v32.1h4.4V31.3c.9.8 2.5 2.1 5 2.1 4.9-.1 8.3-4.1 8.3-9.6zM60.6 5.8H65v27h-4.4zM71.5 21.3c.5-2.5 2.1-3.9 4.5-3.9 1.9 0 3.7 1 4.1 3.9h-8.6zm-.2 3.2h13.6c0-1.8-.4-5-1.9-7.2-.4-.6-2.4-3.5-7.2-3.5-5.2 0-9.1 3.5-9.1 9.7 0 6.8 4.6 9.8 9.4 9.8 3.7 0 6.3-1.6 8.6-4.7l-3.4-2.2c-.5.8-1.8 2.5-4.8 2.5-2.9.2-4.7-1.5-5.2-4.4zM86.5 14.4v18.3h4.3V26c0-3 0-4.9 1.9-6.3 1.4-1 3-1.1 4-1.1V14c-4.1-.1-5.3 2.1-5.9 3v-2.6h-4.3z"/><path d="M108.4 28c.8-.5 4.9-1.4 5.9-2.1s2.6-1.9 2.3-2.8c-.2-.6-.6-1-.7-1.6-.1-.6-.1-1.3-.5-2s-1-1.8-1.5-2.2c-.8-.6-.8-1.7-1.3-1.9-.5-.1-.8.1-.9.6-.1.5-.4 2.6-1 3-.6.4-2.8.8-3.5.6-.7-.2-2.8-2.1-3.4-2.1-.3 0-1.3.3-1.7.5-.3.2-.2.6-.2.8-.3 1.2-1.2 2.6-1.7 3.2-.5.6-1.2 2-1.4 2.4-.2.4-.5 2.2-1.4 2.1-.9-.1-2.2 1.2-3.2 1.1-.9-.1-2 .2-2.1.9-.1.8-.1 1.5.6 2.4.8 1.1 2.6 1.5 3.6 1.5h4.2c1.2 0 4.1-1.1 4.7-1.7.6-.2 2.4-2.1 3.2-2.7z" fill="none"/><path class="st17" d="M99.6 26.6l-1-.5-.2-.4c0-.1-.2-.2-.3-.1-.1 0-.2.2-.1.3-.1 0-.1.1-.2.1-.1.1 0 .2.1.3l.3.1.4.8c0 .1.1.1.2.1h.1c.1 0 .2-.2.1-.3l-.2-.4.5.2h.1c.1 0 .2 0 .2-.1.2.1.1-.1 0-.1zM101 25.1l-1.4-.6-.4-.6c-.1-.1-.2-.1-.3-.1-.1.1-.1.2-.1.3-.1 0-.2 0-.2.1s0 .2.1.3l.6.2.8 1.3c0 .1.1.1.2.1h.1c.1-.1.1-.2.1-.3l-.5-.7.8.3h.1c.1 0 .2-.1.2-.1.1 0 0-.1-.1-.2zM102.1 23.6l-1.7-.8-.4-.5c-.1-.1-.2-.1-.3 0-.1.1-.1.1-.1.2-.1 0-.1.1-.2.1-.1.1 0 .2.1.3l.5.2 1.2 1.5c0 .1.1.1.2.1h.1c.1-.1.1-.2 0-.3l-.6-.8.9.4h.1c.1 0 .2 0 .2-.1.2-.1.2-.2 0-.3zM103.2 21.8l-1.8-.5-.4-.3c-.1-.1-.2-.1-.3 0-.1.1-.1.1-.1.2-.1 0-.2.1-.2.2s0 .2.2.3l.5.1 1.3 1.3s.1.1.2.1.1 0 .2-.1.1-.2 0-.3l-.8-.8 1.1.3h.1c.1 0 .2-.1.2-.2s-.1-.2-.2-.3zM103.7 20.7l-2.3-.5c-.1 0-.2 0-.3.2 0 .1 0 .2.2.3l2.3.5h.1c.1 0 .2-.1.2-.2 0-.2-.1-.3-.2-.3z"/></g></svg>