<svg xmlns="http://www.w3.org/2000/svg" width="100" height="100"><path fill="#c85a1e" d="M4.1 89.6L50 10l45.9 79.6z"/><path d="M69.4 58.1c-2 .9-4.2 1.5-6.5 1.8 2.3-1.4 4.1-3.6 4.9-6.2-2.2 1.3-4.6 2.2-7.1 2.7-2.1-2.2-5-3.6-8.2-3.6-6.2 0-11.3 5-11.3 11.2 0 .9.1 1.7.3 2.6-9.3-.5-17.6-4.9-23.2-11.8-1 1.7-1.5 3.6-1.5 5.7 0 3.9 2 7.3 5 9.4-1.8-.1-3.6-.6-5.1-1.4v.1c0 5.4 3.9 10 9 11-.9.3-1.9.4-3 .4-.7 0-1.4-.1-2.1-.2 1.4 4.5 5.6 7.7 10.5 7.8-3.8 3-8.7 4.8-14 4.8-.9 0-1.8-.1-2.7-.2 5 3.2 10.9 5.1 17.2 5.1 20.7 0 32-17.1 32-32v-1.5c2.4-1.5 4.3-3.4 5.8-5.7z" fill="#fff"/></svg>