<svg id="Layer_1" xmlns="http://www.w3.org/2000/svg" width="100" height="100"><style>.st1{fill:#fff}</style><g id="Social_-_home"><path fill="#c85a1e" d="M4.1 89.6L50 10l45.9 79.6z"/><g id="Instgram"><path class="st1" d="M52.5 32.5H27.1c-8.6 0-15.6 7-15.6 15.6v25.3c0 8.6 7 15.6 15.6 15.6h25.3C61 89 68 82 68 73.4V48.1c.1-8.6-6.9-15.6-15.5-15.6zm10.6 40.9c0 5.8-4.7 10.6-10.6 10.6H27.1c-5.8 0-10.6-4.7-10.6-10.6V48.1c0-5.8 4.7-10.6 10.6-10.6h25.3c5.8 0 10.6 4.7 10.6 10.6l.1 25.3z"/><path class="st1" d="M39.8 46.2c-8 0-14.6 6.5-14.6 14.6 0 8 6.5 14.6 14.6 14.6 8 0 14.6-6.5 14.6-14.6s-6.6-14.6-14.6-14.6zm0 24.1c-5.3 0-9.6-4.3-9.6-9.6s4.3-9.6 9.6-9.6 9.6 4.3 9.6 9.6-4.3 9.6-9.6 9.6zM55 41.9c-1 0-1.9.4-2.6 1.1-.7.7-1.1 1.6-1.1 2.6s.4 1.9 1.1 2.6c.7.7 1.6 1.1 2.6 1.1s1.9-.4 2.6-1.1c.7-.7 1.1-1.6 1.1-2.6s-.4-1.9-1.1-2.6c-.7-.7-1.6-1.1-2.6-1.1z"/></g></g></svg>