<svg id="Layer_1" xmlns="http://www.w3.org/2000/svg" xmlns:xlink="http://www.w3.org/1999/xlink" width="44" height="38"><style>.st2{fill:#fff}</style><g id="Social_-_pages"><path fill="#c85a1e" d="M.5 37.6L22 .4l21.5 37.2z" id="Layer_8"/><g id="Instagram_1_"><defs><path id="SVGID_1_" d="M.5 37.6L22 .4l21.5 37.2z"/></defs><clipPath id="SVGID_2_"><use xlink:href="#SVGID_1_" overflow="visible"/></clipPath><g clip-path="url(#SVGID_2_)"><path class="st2" d="M23.2 10.8H11.3c-4 0-7.3 3.3-7.3 7.3V30c0 4 3.3 7.3 7.3 7.3h11.9c4 0 7.3-3.3 7.3-7.3V18.1c0-4-3.3-7.3-7.3-7.3zM28.1 30c0 2.7-2.2 5-5 5H11.3c-2.7 0-5-2.2-5-5V18.1c0-2.7 2.2-5 5-5h11.9c2.7 0 5 2.2 5 5V30h-.1z"/><path class="st2" d="M17.2 17.2c-3.8 0-6.8 3.1-6.8 6.8 0 3.8 3.1 6.8 6.8 6.8 3.8 0 6.8-3.1 6.8-6.8s-3-6.8-6.8-6.8zm0 11.3c-2.5 0-4.5-2-4.5-4.5s2-4.5 4.5-4.5 4.5 2 4.5 4.5-2 4.5-4.5 4.5zM24.3 15.2c-.5 0-.9.2-1.2.5-.3.3-.5.8-.5 1.2 0 .5.2.9.5 1.2.3.3.8.5 1.2.5.5 0 .9-.2 1.2-.5.3-.3.5-.8.5-1.2 0-.5-.2-.9-.5-1.2-.3-.3-.7-.5-1.2-.5z"/></g></g></g></svg>