<svg xmlns="http://www.w3.org/2000/svg" xmlns:xlink="http://www.w3.org/1999/xlink" width="44" height="38"><path fill="#c85a1e" d="M.5 37.6L22 .4l21.5 37.2z"/><defs><path id="a" d="M.5 37.6L22 .4l21.5 37.2z"/></defs><clipPath id="b"><use xlink:href="#a" overflow="visible"/></clipPath><path d="M31.1 22.9c-.9.4-2 .7-3 .8 1.1-.7 1.9-1.7 2.3-2.9-1 .6-2.1 1-3.3 1.3-1-1-2.3-1.7-3.8-1.7-2.9 0-5.3 2.4-5.3 5.3 0 .4 0 .8.1 1.2-4.4-.2-8.3-2.3-10.9-5.5-.5.8-.7 1.7-.7 2.6 0 1.8.9 3.4 2.3 4.4-.9 0-1.7-.3-2.4-.7v.1c0 2.6 1.8 4.7 4.2 5.2-.4.1-.9.2-1.4.2-.3 0-.7 0-1-.1.7 2.1 2.6 3.6 4.9 3.7-1.7 1.3-4 2.2-6.4 2.2-.4 0-.8 0-1.3-.1 2.3 1.5 5.1 2.4 8.1 2.4 9.7 0 15-8 15-15v-.7c1-.7 1.9-1.7 2.6-2.7z" clip-path="url(#b)" fill="#fff"/></svg>