<?xml version="1.0" encoding="utf-8"?>
<!-- Generator: Adobe Illustrator 16.0.0, SVG Export Plug-In . SVG Version: 6.00 Build 0)  -->
<!DOCTYPE svg PUBLIC "-//W3C//DTD SVG 1.1//EN" "http://www.w3.org/Graphics/SVG/1.1/DTD/svg11.dtd">
<svg version="1.1" id="Layer_1" xmlns="http://www.w3.org/2000/svg" xmlns:xlink="http://www.w3.org/1999/xlink" x="0px" y="0px"
	 width="15px" height="15px" viewBox="0 0 15 15" style="enable-background:new 0 0 15 15;" xml:space="preserve">
<style type="text/css">
<![CDATA[
	.st0{fill:#F08400;}
	.st1{fill:#FFFFFF;}
]]>
</style>
<rect class="st0" width="15" height="15"/>
<path class="st1" d="M7.6,4.7c0,0.4,0.1,0.7,0.4,0.9c0.4,0.3,0.9,0.2,1.3,0.2c0.1,0,0.2-0.1,0.2-0.2c0-0.3-0.5-0.2-0.7-0.2
	C8.5,5.3,8.3,5.1,8.3,4.8c0,0,0-1.5,0-1.5c0-0.1,0.1-0.2,0.2-0.2h0.4c0.2,0,0.3-0.1,0.3-0.3c0-0.4-0.7-0.1-0.8-0.5
	C8.3,2,8.4,1.6,8,1.6C7.8,1.6,7.7,2,7.7,2.2c0,0.1-0.1,0.3-0.2,0.4C7.3,2.7,6.8,2.6,6.8,2.9c0,0.3,0.6,0.1,0.7,0.4
	c0.1,0.2,0,0.5,0,0.7C7.6,4.2,7.5,4.5,7.6,4.7z"/>
<path class="st1" d="M9.9,2.5c-0.1,0-0.2,0.1-0.2,0.2v2.7c0,0.2,0.2,0.4,0.4,0.4c0.2,0,0.4-0.2,0.4-0.4v-2C10.7,3.3,11,3,11.2,3
	c0.4,0,0.3,0.8,0.4,1c0,0.5,0.1,0.9,0.1,1.4c0,0.2,0.1,0.3,0.3,0.3c0.2,0,0.4-0.2,0.4-0.4c0-0.5,0-1,0-1.5c0-0.3,0-0.8,0.5-0.8
	c0.2,0,0.5,0.3,0.5,0.6v1.8c0,0.2,0.2,0.4,0.4,0.4s0.4-0.2,0.4-0.4V3.6c0-0.6-0.5-1.1-1.1-1.1c-0.4,0-0.7,0.1-1,0.4
	c0,0-0.2-0.3-0.3-0.3c-0.1-0.1-0.2-0.1-0.3-0.1c-0.4,0-0.7,0.2-1,0.5l-0.4-0.4C10,2.6,10,2.5,9.9,2.5"/>
</svg>
