<?xml version="1.0" encoding="utf-8"?>
<!-- Generator: Adobe Illustrator 16.0.0, SVG Export Plug-In . SVG Version: 6.00 Build 0)  -->
<!DOCTYPE svg PUBLIC "-//W3C//DTD SVG 1.1//EN" "http://www.w3.org/Graphics/SVG/1.1/DTD/svg11.dtd">
<svg version="1.1" id="Layer_1" xmlns="http://www.w3.org/2000/svg" xmlns:xlink="http://www.w3.org/1999/xlink" x="0px" y="0px"
	 width="104px" height="36px" viewBox="0 0 104 36" style="enable-background:new 0 0 104 36;" xml:space="preserve">
<style type="text/css">
<![CDATA[
	.st0{fill:#FFFFFF;}
]]>
</style>
<g>
	<path class="st0" d="M54.9,6.8c-0.4,0.8-1.1,1.1-1.7,1.1c-1.8,0-2.1-1.7-2.1-2.7c0-1.7,1-2.7,2.2-2.7c0.6,0,1.4,0.2,1.8,1.1
		l0.7-0.2c-0.1-0.3-0.7-1.6-2.5-1.6c-1.8,0-3.1,1.3-3.1,3.4c0,1.7,0.9,3.4,3,3.4c1.3,0,1.9-0.6,2.1-0.8c0.3-0.3,0.4-0.5,0.5-0.8
		L54.9,6.8z"/>
	<path class="st0" d="M62.5,4.7c0-0.7,0-1.3-0.2-1.7c-0.3-0.7-1.1-1.2-2-1.2c-0.8,0-1.6,0.4-2,1.2V0h-0.8v8.4h0.8V5.6
		c0-0.9,0-1.3,0.1-1.7c0.3-1.1,1.1-1.4,1.8-1.4c1,0,1.4,0.6,1.5,1.3c0,0.1,0,0.9,0,1v3.5h0.8V4.7z"/>
	<path class="st0" d="M68.3,5.4c0,0.7,0,1.2-0.5,1.7c-0.4,0.4-1.1,0.7-1.7,0.7c-0.9,0-1.3-0.6-1.3-1.1c0-0.8,0.8-1,1.6-1.2
		c0.3-0.1,0.7-0.2,1.6-0.4L68.3,5V5.4z M70.1,8.4V7.8c-1,0-1-0.3-1-1.4V4.3c0-0.6,0-0.9-0.1-1.2c-0.3-1.1-1.5-1.3-2.3-1.3
		c-0.9,0-1.7,0.3-2.2,1c-0.3,0.4-0.3,0.8-0.4,1.1L65.1,4c0-0.7,0.1-1.6,1.7-1.6c1.6,0,1.6,1,1.6,1.5v0.3l-0.8,0.2
		c-2,0.5-3.6,0.8-3.6,2.3c0,0.7,0.4,1.8,2,1.8c0.9,0,1.9-0.4,2.3-1.2c0,0,0-0.1,0.1-0.1v0.1C68.4,8.3,69.1,8.4,70.1,8.4z"/>
	<rect x="71.4" class="st0" width="0.8" height="8.4"/>
	<rect x="74.7" class="st0" width="0.8" height="8.4"/>
	<path class="st0" d="M77.7,4.5c0.1-1.2,1-2,2.1-2c0.6,0,1.1,0.2,1.3,0.5c0.4,0.4,0.6,1,0.7,1.5H77.7z M77.7,5.2h5
		c0.1-1.7-1-3.4-2.9-3.4c-1.6,0-3,1.2-3,3.3c0,1.8,0.9,3.5,3.1,3.5c1.4,0,2-0.7,2.2-0.9c0.3-0.4,0.5-0.7,0.6-1L82,6.5
		c-0.6,1.1-1.4,1.4-2.1,1.4c-0.3,0-1.5,0-2-1.3C77.7,6,77.7,5.5,77.7,5.2z"/>
	<path class="st0" d="M89,5c0-1.4,0-1.9-0.4-2.5c-0.6-0.7-1.4-0.8-1.8-0.8c-1.2,0-1.8,0.7-2,1.3V1.9h-0.8v6.5h0.8V5.5
		c0-1.4,0-1.8,0.4-2.3c0.3-0.4,0.8-0.7,1.5-0.7c0.7,0,1.1,0.3,1.3,0.6c0.2,0.4,0.2,0.7,0.2,2v3.4H89V5z"/>
	<path class="st0" d="M95.1,5.2c0,0.7-0.1,2.6-2,2.6c-0.4,0-1-0.1-1.5-0.6C91.3,6.7,91,6,91,5.1c0-1,0.3-1.6,0.6-2
		c0.4-0.4,0.9-0.7,1.5-0.7C95,2.5,95.1,4.2,95.1,5.2z M95.9,7.7V1.9h-0.8v1.2c-0.2-0.7-1-1.3-2.1-1.3c-1.6,0-2.8,1.2-2.8,3.3
		c0,1.9,0.9,3.4,2.8,3.4c0.6,0,1.3-0.2,1.8-0.7c0.3-0.3,0.3-0.5,0.4-0.7v0.3c0,0.4,0,1.8-0.1,2.1c-0.2,0.9-0.7,1.4-1.9,1.4
		c-1.8,0-1.9-1.1-2.1-1.8l-0.8,0.2c0,0.5,0.2,1.2,0.9,1.7c0.7,0.5,1.5,0.6,1.9,0.6c1,0,1.8-0.3,2.2-0.8C95.9,10.3,95.9,9.4,95.9,7.7
		z"/>
	<path class="st0" d="M98.1,4.5c0.1-1.2,1-2,2.1-2c0.6,0,1.1,0.2,1.3,0.5c0.4,0.4,0.6,1,0.7,1.5H98.1z M98.1,5.2h5
		c0.1-1.7-1-3.4-2.9-3.4c-1.6,0-3,1.2-3,3.3c0,1.8,0.9,3.5,3.1,3.5c1.4,0,2-0.7,2.2-0.9c0.3-0.4,0.5-0.7,0.6-1l-0.7-0.2
		c-0.6,1.1-1.4,1.4-2.1,1.4c-0.3,0-1.5,0-2-1.3C98.1,6,98.1,5.5,98.1,5.2z"/>
	<polygon class="st0" points="0,1.9 0,24.5 3.7,24.5 3.7,19.8 5.8,17.6 10.4,24.5 14.9,24.5 8.5,15 14.3,9.2 9.6,9.2 3.7,15 
		3.7,1.9 	"/>
	<path class="st0" d="M17.1,14.9c0.4-2.1,1.8-3.2,3.7-3.2c1.6,0,3.1,0.8,3.4,3.2H17.1z M17,17.6h11.4c0-1.5-0.3-4.2-1.6-6
		c-0.3-0.5-2-2.9-6-2.9c-4.3,0-7.6,2.9-7.6,8.1c0,5.7,3.9,8.2,7.9,8.2c3.1,0,5.3-1.4,7.2-3.9l-2.8-1.8c-0.5,0.6-1.5,2.1-4,2.1
		C19,21.4,17.5,20,17,17.6z"/>
	<path class="st0" d="M40.5,16.8c0,3.5-1.9,4.7-3.7,4.7c-2.1,0-3.8-1.6-3.7-4.8c0.1-3.3,2-4.5,3.7-4.5C37.8,12.2,40.5,13,40.5,16.8z
		 M44.2,17c0-4.2-2.5-8.3-7-8.3c-2.4,0-3.6,1.3-4.2,1.9V9.2h-3.7V36H33V23.3c0.8,0.7,2.1,1.7,4.2,1.7C41.4,25,44.2,21.6,44.2,17z"/>
	<rect x="45.3" y="1.9" class="st0" width="3.7" height="22.6"/>
	<path class="st0" d="M54.5,14.9c0.4-2.1,1.8-3.2,3.7-3.2c1.6,0,3.1,0.8,3.4,3.2H54.5z M54.3,17.6h11.4c0-1.5-0.3-4.2-1.6-6
		c-0.3-0.5-2-2.9-6-2.9c-4.3,0-7.6,2.9-7.6,8.1c0,5.7,3.9,8.2,7.9,8.2c3.1,0,5.3-1.4,7.2-3.9l-2.8-1.8c-0.5,0.6-1.5,2.1-4,2.1
		C56.3,21.4,54.8,20,54.3,17.6z"/>
	<path class="st0" d="M67,9.2v15.4h3.6v-5.7c0-2.5,0-4.1,1.6-5.3c1.1-0.9,2.5-0.9,3.3-0.9V8.8c-3.4-0.1-4.5,1.7-4.9,2.5V9.2H67z"/>
	<path class="st0" d="M98,24c0,0-5.3-5.1-5.8-5.5c-0.3-0.1-0.8,1.4-1.1,1.5c-0.5,0.1-1.6,0.1-2.2,0.4c-0.9,0.5-1.7,1.6-2.2,1.7
		c-1.9,0.7-3.8,1.3-5.4,1.7c0.7-0.3,1.3-0.7,1.8-1.2c0.9-0.9,1.7-1.8,2.8-2.3c1.2-0.5,2.4-0.7,3.6-1.1c0.6-0.2,1-0.6,1.5-0.9
		c0.4-0.3,0.8-0.7,1.1-1.1c0.1-0.2,0.2-0.4,0.1-0.6c-0.2-0.5-0.5-0.8-0.6-1.3c-0.1-0.5-0.1-1.1-0.4-1.7c-0.3-0.6-0.8-1.5-1.2-1.9
		c-0.7-0.5-0.7-1.5-1.1-1.6s-0.7,0.1-0.8,0.5c-0.1,0.4-0.3,2.2-0.8,2.5c-0.5,0.4-2.4,0.7-2.9,0.5c-0.6-0.2-2.3-1.8-2.9-1.7
		c-0.3,0-1.1,0.2-1.5,0.4c-0.3,0.2-0.2,0.5-0.2,0.7c-0.1,0.3-0.2,0.7-0.4,1c-0.1,0-0.2,0-0.2,0.1c0,0.1,0,0.1,0.1,0.2
		c-0.1,0.1-0.1,0.2-0.2,0.3c-0.1,0-0.1,0-0.2,0c-0.1,0.1-0.1,0.1,0,0.2c-0.1,0-0.1,0.1-0.2,0.1c0,0.1,0,0.1,0.1,0.2
		c-0.1,0.2-0.3,0.4-0.4,0.5c-0.1,0.1-0.1,0-0.2,0.1c-0.1,0-0.1,0.2-0.1,0.2c0,0.1-0.1,0.1-0.1,0.2c0,0.1,0.1,0.1,0.1,0.2
		c0,0.1-0.1,0.2-0.2,0.3c0,0.1-0.1,0.3-0.2,0.4c-0.1,0-0.1,0-0.2,0.1c-0.1,0.1,0,0.2,0,0.3c-0.1,0-0.2,0-0.2,0.1
		c0,0.1,0.1,0.2,0.1,0.3c0,0.1-0.3,0.7-0.3,0.7c-0.2-0.1-0.3,0.1-0.3,0.2c-0.1,0-0.2,0.1-0.2,0.2c0,0.1,0.1,0.1,0.1,0.2
		c0,0.3-0.4,0.3-0.6,0.4c-0.5,0-0.9,0.3-1.4,0.5c-0.5,0.2-1,0.3-1.6,0.4c-0.4,0-0.8,0.1-1.1,0.4c-0.4,0.3-0.4,0.9-0.3,1.4
		c0.1,0.3,0.2,0.6,0.4,0.9c0.8,0.9,2,1.1,3.1,1.1c0.8,0,3.1,0,3.5,0H98z"/>
</g>
</svg>
